<svg xmlns="http://www.w3.org/2000/svg" viewBox="0 0 1200 360" role="img" aria-label="Business ideas by category">
<style>text{font-family:-apple-system,BlinkMacSystemFont,sans-serif;}</style>
<rect width="100%" height="100%" fill="#FAFAF7"/>
<text x="220" y="28" font-size="16" font-weight="700" fill="#111">Business ideas by category</text>
<text x="220" y="48" font-size="12" fill="#777">42 total. Source: businessideasdb.com</text>
<text x="208" y="101.0" font-size="13" font-weight="600" fill="#333" text-anchor="end">App</text>
<rect x="220" y="80" width="920.0" height="32" rx="4" fill="#7C3AED"/>
<text x="1148.0" y="101.0" font-size="13" font-weight="700" fill="#333" font-family="ui-monospace,Menlo,monospace">24</text>
<text x="208" y="147.0" font-size="13" font-weight="600" fill="#333" text-anchor="end">SaaS</text>
<rect x="220" y="126" width="498.3" height="32" rx="4" fill="#4B7BF5"/>
<text x="726.3333333333333" y="147.0" font-size="13" font-weight="700" fill="#333" font-family="ui-monospace,Menlo,monospace">13</text>
<text x="208" y="193.0" font-size="13" font-weight="600" fill="#333" text-anchor="end">Tool</text>
<rect x="220" y="172" width="76.7" height="32" rx="4" fill="#E05A33"/>
<text x="304.66666666666663" y="193.0" font-size="13" font-weight="700" fill="#333" font-family="ui-monospace,Menlo,monospace">2</text>
<text x="208" y="239.0" font-size="13" font-weight="600" fill="#333" text-anchor="end">Mobile App</text>
<rect x="220" y="218" width="38.3" height="32" rx="4" fill="#7C3AED"/>
<text x="266.3333333333333" y="239.0" font-size="13" font-weight="700" fill="#333" font-family="ui-monospace,Menlo,monospace">1</text>
<text x="208" y="285.0" font-size="13" font-weight="600" fill="#333" text-anchor="end">SaaS + Hardware</text>
<rect x="220" y="264" width="38.3" height="32" rx="4" fill="#E09B13"/>
<text x="266.3333333333333" y="285.0" font-size="13" font-weight="700" fill="#333" font-family="ui-monospace,Menlo,monospace">1</text>
<text x="208" y="331.0" font-size="13" font-weight="600" fill="#333" text-anchor="end">Platform</text>
<rect x="220" y="310" width="38.3" height="32" rx="4" fill="#0D9488"/>
<text x="266.3333333333333" y="331.0" font-size="13" font-weight="700" fill="#333" font-family="ui-monospace,Menlo,monospace">1</text>
</svg>